<?xml version="1.0" encoding="UTF-8"?>
<svg id="Layer_1" xmlns="http://www.w3.org/2000/svg" version="1.1" viewBox="0 0 1024 1024">
  <!-- Generator: Adobe Illustrator 29.8.1, SVG Export Plug-In . SVG Version: 2.1.1 Build 2)  -->
  <defs>
    <style>
      .st0, .st1 {
        stroke: #000;
      }

      .st0, .st1, .st2, .st3, .st4 {
        font-family: ArialNarrow, 'Arial Narrow';
      }

      .st0, .st1, .st2, .st4 {
        stroke-miterlimit: 10;
        stroke-width: 5px;
      }

      .st0, .st2 {
        font-size: 135.35px;
      }

      .st1 {
        font-size: 80.63px;
      }

      .st2, .st5, .st4 {
        fill: #0080cc;
      }

      .st2, .st4 {
        stroke: #0080cc;
      }

      .st3 {
        font-size: 34.39px;
      }

      .st4 {
        font-size: 76.84px;
      }
    </style>
  </defs>
  <path class="st5" d="M551.01,240c-2.11,13.36-3.72,20.76-12.03,31.47-1.72,2.22-14.88,17.5-15.96,18.06-3.43,1.77-2.79-3.98-5.01-4.53-.31,2.58,1.12,4.98,1.09,7.51-.08,7.67-17.52,20.87-21.41,28.17l-17.02,7.49-22.67,14.82-8-40.99,11.99,6.5-12.1-11.9-6.78-41.49c33.62-17.15,70.77-20.4,107.89-15.11Z"/>
  <path class="st5" d="M426.01,340.99c2.1-.32,0-5.04-.31-6.2-2.56-9.49-8.84-23-10.02-32.01-.17-1.27-1.23-1.39.8-2.76l32.31,15.17,5.76,30.32c-4.62,6.78-10.3,12.84-14.98,19.58-1.08,1.55-8.67,16.78-10.58,14.92l-2-4.01c2.32,7,.04,11.71-4.51,16.98l-66.52-52.47c7.15-12.99,15.69-25.5,25.05-36.99,4.1-5.03,8.82-10.43,13.42-14.54l17,9.06,14.56,42.94Z"/>
  <path class="st5" d="M478.88,604.88c-1.31.83-17.9-4.44-20.84-5.42s-18.27-6.13-18.88-8.12c-1.25-15.97-3.91-31.89-5.15-47.85-.41-5.24-1.85-15.42-.98-19.97.45-2.33,20.31-20.36,22.53-20.57,2.02-.19,17,9.1,19.89,11.11l22.37,52.7-.57,4.97-18.36,33.15Z"/>
  <path class="st5" d="M355.08,507.93c-7.08-19.08-13.22-38.69-16.09-58.92l55-14c-3.07,13.22-10.87,25.38-13.77,38.73-.22,1.01-1.01,3.51.76,3.26,2.82-6.35,15.17-42.57,19.01-44.57l17.38,7.7c4.34,3.41,10.39,3.31,9.42,10.12-.9,6.33-5.24,20.06-7.3,26.76-.63,2.04-2.33,8.49-3.52,9.48l-60.9,21.45Z"/>
  <path class="st5" d="M390.99,388c-.74-6.6-7.02-12.46-6.5-18.99l37.33,29.49c-7.2,12.64-17.84,24.94-30.57,32.37-18.12-6.62-34.14-17.3-50.78-26.84.51-18.94,6.37-37.76,11.54-56.02,6.57,5.42,20.17,11.08,25.54,16.95,5.05,5.53,7.42,17.63,13.44,23.05Z"/>
  <path class="st5" d="M592.41,584.59c-2.67-2.13-5.34-5.23-7.91-7.59-1.52,2.15,2.61,4.01,3.5,5.5l-3.25.25-29.77-17.46-3.82-44.64c.31-.93,15.6-10.24,16.61-10.49,1.16-.29,2.14-.33,3.18.34l20.95,13.09,38.06,42.97c.23,1.02-5.27,5.41-6.49,6.41-7.46,6.12-16.22,11.1-23.98,16.84-2.05-2.19-4.8-3.4-7.08-5.22Z"/>
  <path class="st5" d="M655.65,319.65c-10.49,9.43-23.42,18.05-34.33,27.2l-14.32-6.83c.95,2.94,10.4,6.78,9.93,9.36-.29,1.63-16.53,15.82-18.37,15.69-6.23-10.97-15.38-19.25-24.43-27.77-.74-2.86,6.42-12.71,7.48-16.18,14.92-14.52,34.86-24.17,52.06-35.97,2-.19,24.29,25.71,27.28,29.37-2.56,1.09-3.76,3.74-5.31,5.13Z"/>
  <path class="st5" d="M668,526.01l-33.58,38.06-37.41-39.57c2.88-1.71,6.16-.33,9.35-.58.92-.07,4.75-.48,4.64-1.9-11.41.7-26.17-5.51-35.35-12.15-.84-.61-1.91-.92-1.6-2.29.45-2,22.91-22.2,25.46-26.55l68.5,45Z"/>
  <path class="st5" d="M556.99,598c-2.07-.66-2.93-2.89-4.16-4.33-.75-.88-1.96-3.25-1.81-.19l7.98,12.51c-12.81,2.13-25.85,4.47-38.88,3.89l-19.91-46.23,22.52-29.69,2.29-.49,26.47,21.53c1.3,14.4,5,28.58,5.5,42.99Z"/>
  <path class="st5" d="M420,492.01l-13.78,45.71c-2.04,2.56-15.93,17.49-17.58,17.21l-29.62-38.43c19.83-9.26,39.92-18.29,60.98-24.49Z"/>
  <path class="st5" d="M602,257.01l-17.1,53.39c-2.8,4.25-5.75,9.16-8.91,13.09-1.33,1.66-7.88,9.44-9.03,9.12-.86-.24-7.52-4.49-7.79-5.3,1.05-8.02-2.07-22.02.38-29.26.92-2.72,17.38-21.22,20.56-24.44,2.26-2.3,19.51-18.93,21.89-16.6Z"/>
  <path class="st5" d="M440,258l8,53-49-25.01c-1.09-1.43,14.25-12.76,16.28-14.2,2.69-1.92,22.95-15.66,24.72-13.78Z"/>
  <path class="st5" d="M429.99,526.01l6.04,60.51c.1.86-.96,2.36-1.56,2.48-3.43.71-33.16-22.45-37.4-26.62-.4-2.29,26.19-30.99,29.94-34.86.95-.98,1.31-1.89,2.98-1.51Z"/>
  <path class="st5" d="M545.99,273c-1.02,5.35,9.29,14.36,9.03,17.41-4.33,5.82-9.45,23.95-13.97,28.14-3.51,3.25-9.24.46-13.51.4-7.93-.12-15.67.59-23.55,1.04,7.67-8.57,13.98-18.29,21.49-27,3.8-4.42,13.88-16.16,18-19,.85-.58.99-1.39,2.51-.99Z"/>
  <path class="st5" d="M589,309.99l16.01-51.99c1.71-1.28,26.91,16.5,29.97,19.5l-45.98,32.49Z"/>
  <path class="st5" d="M668.98,299.99c-.68.56-1.4.06-2.06-.63-1.69-1.77-4.97-6.65-6.75-9.03-1.67-2.23-8.72-11.25-7.72-13.31,2.27-4.68,41.94-23.84,48.54-29.03l-32.01,51.99Z"/>
  <path class="st5" d="M418.01,513.01c-.48,2.87.62,1.65,2.31,2.13,2.83.79,6.16.68,8.68,2.36l-16.51,15.5c-1.47.22-1.79.11-1.43-1.43,3.18-13.52,9.74-27.85,13.74-41.27,1.74-1.75,10.31-12.64,11.69-12.29,2.18,3.74,11.43,12.68,11.44,16.49.01,4.24-11.92,18.3-15.99,20.03-3.03,1.29-10.15-2.66-13.93-1.51Z"/>
  <path class="st5" d="M498.01,559l-18.01-43.99,38.53,13.95c.89,1.93-5.62,12.73-7.1,14.97-1.88,2.87-8.69,12.14-10.9,14.1-.87.77-1.12,1.29-2.51.97Z"/>
  <path class="st5" d="M385.99,432.01l-46.99,12.98c.44-10.84-1.18-21.25,0-31.99l46.99,19.01Z"/>
  <path class="st5" d="M595,593.99c-5.03-.13-29.31,12.31-31.82,10.86-5.07-2.93-6.1-28.4-7.17-34.85l36.33,20.16,2.66,3.83Z"/>
  <path class="st5" d="M561.01,281c2.08-7.97-5.97-8.09-11.09-11.61l7.09-27.38c3.37,1.31,25.57,8.78,25.98,10.55-5.5,10.81-13.69,19.8-21.98,28.45Z"/>
  <path class="st5" d="M500.98,574.01c1.59,1.12,13.67,31.39,15.02,35.99l-34.99-4,17.15-30.34c.39-1.08,1.9-2.3,2.83-1.65Z"/>
  <path class="st5" d="M412.98,217.99c-.56.48-2.41.23-2.22-1.25l-14.75-53.74,28.86,37.73c.39,2.75-7.14,9.78-9.29,12.35-1.13,1.35-2.4,4.73-2.61,4.91Z"/>
  <polygon class="st5" points="359 590.01 351.47 612.97 317 631.99 342.27 596.28 359 590.01"/>
  <path class="st5" d="M300,432.99l-56.99-8.98,37.48-9.02c7.22,4.86,12.6,12.49,19.52,17.99Z"/>
  <path class="st5" d="M378.99,262c-3.11-2.64-16.73-1.67-18.03-3.39l-12.95-45.6,19.41,28.08c1.27,3.18,12.96,19.1,11.57,20.92Z"/>
  <path class="st5" d="M637,196.01l-21.17,44.32c-2.05,3.43-6.01,5.11-9.83,5.66,3.12-5.42.52-17.57,2.52-21.97.75-1.64,22.18-23.68,24.98-26.02,1.12-.94,1.63-2.43,3.5-1.99Z"/>
  <polygon class="st5" points="301 502.01 255.01 537.99 264.43 512.93 301 502.01"/>
  <polygon class="st5" points="712 594.99 670.02 563.5 683.51 554.02 712 594.99"/>
  <path class="st5" d="M635,620.5c-.01-.3-.92-1.06-1.02-1.98,2.06-2.07,2.15,1.12,3.46,2.5,2.96,3.11,16.03,14.71,17.05,17,.38.86,2.38,15.37,2.53,17.49.11,1.57.16,1.7-1.5,1.49-1.63-3.59-20.51-14.21-20.51-15.49,0-6.94.34-14.09,0-21Z"/>
  <path class="st5" d="M547,521.99l3,26c-.86.84-5.21-2.46-6.31-3.18-4.63-3.02-10.85-7.41-15.18-10.82-11.4-8.98,12.82-10.67,18.49-12.01Z"/>
  <path class="st5" d="M390.01,652.99l22.98-38.99c-1.6,8.2-.04,17.65-.97,25.52s-15.55,10.18-22.01,13.48Z"/>
  <polygon class="st5" points="700 446.01 679.5 458.65 657.01 444.01 700 446.01"/>
  <path class="st5" d="M695,184.01c-6.31,9.68-11.27,24.46-18.17,33.32-.86,1.11-1,2.08-2.82,1.67,1.61-4.57-4.42-19.08-2.56-22l23.55-12.98Z"/>
  <path class="st5" d="M425.99,437l-14.32-8.17-5.68-4.36c1.71-2.44,16.26-17.42,17.5-17.45,2.5-.05,1.35,17.76,1.46,20.52.12,3.16,1.57,6.21,1.04,9.45Z"/>
  <path class="st5" d="M293,218.01c.96-.77,21.81,8.83,22.51,9.97.62,1.02-.2,15.14-.46,17.57-.11,1.01-.49,3.45-1.55,3.43-3.85-.08-17.93-26.51-20.5-30.97Z"/>
  <path class="st5" d="M551,644.5c.09-.35,1.63-1.74,1.98-1.5.43,4.08,11.94,19.29,11.82,21.32-.26,4.56-8.01,13.93-7.82,19.68-1.51-.15-1.54-1.48-1.94-2.55-.58-1.58-4.05-13.22-4.05-13.95,0-5.34-1.03-18.93,0-23Z"/>
  <path class="st5" d="M603.01,178l22.98-36c-2.38,6.01-.41,23.18-3.09,27.4-1.15,1.82-19.1,9.34-19.89,8.6Z"/>
  <path class="st5" d="M517,128.01c-1.75,4.35-.06,7.52.05,11.45.25,8.49-.27,17.05-.06,25.54-2.11-3.09-14.91-14.21-14.97-16.47,3.75-6.79,8.59-12.67,12.74-19.24.64-1.01-.09-1.78,2.24-1.28Z"/>
  <path class="st5" d="M496.99,676c-1.6,1.7-1.7-.37-2.02-1.46-1.04-3.54-5.55-25.7-5.02-27.87l15.04-7.67c-1.09,4.71-6.53,35.44-8,37Z"/>
  <path class="st5" d="M743.99,506.02c.1.11.36,2.1-.47,1.96l-38.52-11.48c2.12-1.13,9.38-9.59,10.28-9.4l28.7,18.91Z"/>
  <path class="st5" d="M341.99,307.02c.39.47.23,1.39-.61,2.05-1.02.8-11.55,4.88-12.36,4.48-1.51-.75-11.57-11.38-13.54-13.54l-8.48-11.01,34.99,18.01Z"/>
  <path class="st5" d="M752,359.01c-2.27,2.81-17.21,16-19.52,16-5.35-2.95-9.34-8.54-15.48-10.03-1.98-2.04,3.78-2.71,4.62-2.85,9.98-1.7,20.34-1.83,30.38-3.12Z"/>
  <path class="st5" d="M765.99,300l-1.66,2.83-28.32,16.17,8.13-18.86c7.33-1.16,14.81,1.34,21.85-.14Z"/>
  <polygon class="st5" points="345 539.01 315.01 560 318.93 542.43 345 539.01"/>
  <path class="st5" d="M689.99,388.01c-.8,2.38-8.7,16.83-9.65,17.06-3.57.85-10.07-3.67-13.79-5.12-3.99-1.55-10.41-.91-1.53-4.4,7.81-3.07,16.83-5.41,24.97-7.54Z"/>
  <polygon class="st5" points="275 354.01 269.91 359.42 263.48 362.99 245.01 351.01 275 354.01"/>
  <path class="st5" d="M489.99,221.99c-1.09,1.13-11.31-6.16-12.91-7.6l9.42-17.39,3.49,24.99Z"/>
  <path class="st5" d="M269.99,269l-15.95-4.04c-.73-.77,2.27-17.44,3.46-17.96.82,3.41,13.85,20.31,12.49,21.99Z"/>
  <path class="st5" d="M283.26,332.73c-.53-.51-5.76-13.19-5.25-13.72,7.57,3.48,15.32,7.63,21.97,12.5.05,1.29-14.84,3.04-16.72,1.23Z"/>
  <path class="st5" d="M755.99,234c.45,1.72-.7,2-1.48,3.01-3.05,3.91-7.08,7.78-10.01,11.97-.64,0-7.13-9.34-7.49-10.5-.63-2.05.6-1.23,1.49-1.46,5.65-1.4,11.87-1.15,17.49-3.02Z"/>
  <path class="st5" d="M447.99,675.01c.69.81-.89,12.1-1.3,14.2-1.54,7.98-3.34,1.75-6.15-1.25-1.64-1.75-4.82-2.27-4.54-4.94l11.99-8.01Z"/>
  <path class="st5" d="M458.96,163.06c.22.27.15,2.26-.16,2.77-.36.62-12.04,6.85-12.8,6.16,1.56-4.86.9-9.96,1-14.99.7-.8,7.78,4.64,9.13,5.41.87.5,2.73.53,2.83.64Z"/>
  <path class="st5" d="M563.98,196.99c-1.68,1.42-2.09-.98-2.44-1.98-1.39-3.96-1.67-8.82-1.53-13.01,2.15.35,11.97,1.32,11.98,3.5-3.45,1.35-6.59,10.3-8,11.49Z"/>
  <path class="st5" d="M771.01,464.99c-.78,3.47.71,6.28,1.25,9.28.23,1.26,1.32,1.27-.75,2.7l-16.5-13.97,16.01,1.98Z"/>
  <path class="st5" d="M558,326.99c-1.84.37-8.63-.71-9-2.52-.19-.9,6.31-14.64,6.02-17.46,1.31.48,1.76,5.33,1.86,6.62.38,4.5-.69,9.19,1.12,13.36Z"/>
  <path class="st5" d="M314.83,468.83c-1.63,1.05-12.94,1.71-15.82,3.16-2.18-1.79,15.55-11.29,16.5-12.99,1.15,1.58.46,9.1-.68,9.83Z"/>
  <text class="st0" transform="translate(252.55 846.13)"><tspan x="0" y="0">dev</tspan></text>
  <text class="st2" transform="translate(438.12 846.13)"><tspan x="0" y="0">CENTRAL</tspan></text>
  <text class="st1" transform="translate(465.28 478)"><tspan x="0" y="0">dev</tspan></text>
  <text class="st3" transform="translate(962.35 847.75)"><tspan x="0" y="0">©</tspan></text>
  <text class="st2" transform="translate(38.1 848.13)"><tspan x="0" y="0">TRu</tspan></text>
  <text class="st4" transform="translate(460.57 426.93)"><tspan x="0" y="0">TRu</tspan></text>
</svg>